<svg width="371" height="99" viewBox="0 0 371 99" fill="none" xmlns="http://www.w3.org/2000/svg">
<path d="M14.3033 49.2785C31.9287 25.7473 59.6125 11.7208 89.1419 11.7208C98.739 11.6285 107.967 15.2274 114.98 21.7793C130.114 35.8058 131.037 59.5216 117.195 74.6554C124.208 71.887 130.668 68.1035 136.574 63.3973C141.741 45.9565 137.035 26.3932 122.916 13.1973C113.688 4.61529 101.6 -0.0909477 88.9574 0.00133178C54.2603 0.00133178 19.6555 18.0881 0 49.1863C11.2581 66.9962 29.1603 81.8532 47.1548 89.6969C39.6802 84.3447 20.8552 64.7815 14.3033 49.2785Z" fill="#F06724"/>
<path d="M178.284 49.2787C167.026 31.4688 149.123 16.6118 131.129 8.76807C138.696 14.3048 157.521 33.7758 164.073 49.2787C146.447 72.81 118.763 86.8365 89.234 86.8365C79.637 86.9288 70.409 83.3298 63.3958 76.778C48.262 62.7515 47.3392 39.0357 61.1811 23.9019C54.1678 26.6703 47.7083 30.4537 41.8024 35.16C36.6347 52.6008 41.341 72.164 55.4598 85.36C64.6877 93.942 76.7763 98.6482 89.4186 98.556C124.116 98.3714 158.72 80.2846 178.284 49.2787Z" fill="#F06724"/>
<path d="M89.3294 63.8588C81.3011 63.8588 74.7493 57.307 74.7493 49.2786C74.7493 41.2503 81.3011 34.6985 89.3294 34.6985C97.3577 34.6985 103.91 41.2503 103.91 49.2786C103.91 57.307 97.3577 63.8588 89.3294 63.8588ZM89.3294 22.979C74.7493 22.979 62.9375 34.7908 62.9375 49.3709C62.9375 63.9511 74.7493 75.7629 89.3294 75.7629C103.91 75.7629 115.721 63.9511 115.721 49.3709C115.629 34.7908 103.817 22.979 89.3294 22.979Z" fill="#F06724"/>
<path d="M204.576 17.4414H191.934V81.9447H204.576V17.4414Z" fill="#0A0A0A"/>
<path d="M297.879 17.4414H285.236V81.9447H297.879V17.4414Z" fill="#0A0A0A"/>
<path d="M357.12 37.0046C355.09 31.2832 349.83 26.3002 334.512 26.3002C326.022 26.3002 317.44 28.4226 317.44 34.3284C317.44 37.0968 319.009 39.9575 331.836 41.6185L347.062 43.9255C361.457 46.1402 370.039 51.7693 370.039 62.566C370.039 77.7921 355.459 83.5134 338.295 83.5134C310.704 83.5134 303.875 69.856 302.398 64.9652L314.579 61.1818C316.886 65.888 321.685 72.7167 338.664 72.7167C348.907 72.7167 357.397 69.3024 357.397 63.7656C357.397 59.613 352.598 56.8446 343.371 55.7373L327.96 53.6149C313.103 51.5847 304.705 45.1251 304.705 35.2512C304.705 15.8726 329.805 15.8726 334.789 15.8726C362.472 15.8726 367.271 28.6994 368.932 33.1288L357.12 37.0046Z" fill="#0A0A0A"/>
<path d="M260.406 55.6451C269.911 55.0914 278.401 48.5396 278.401 36.6355C278.401 20.8557 267.42 17.3491 252.101 17.3491H213.344V27.7767H250.256C260.499 27.7767 265.758 29.2532 265.758 36.8201C265.758 44.4793 260.499 45.9557 250.256 45.9557H213.344V81.7602H225.986V56.3833H245.918L264.097 81.7602H279.693L260.406 55.6451Z" fill="#0A0A0A"/>
</svg>
